
        <svg xmlns="http://www.w3.org/2000/svg" xmlns:xlink="http://www.w3.org/1999/xlink" version="1.1" width="3181.163438351786" height="905.8171917589298" viewBox="0 0 3181.163438351786 905.8171917589298">
			
			<g transform="scale(9.058171917589297) translate(10, 10)">
				<defs id="SvgjsDefs1096"/><g id="SvgjsG1097" featureKey="nRdZyp-0" transform="matrix(0.830737292766571,0,0,0.830737292766571,-1.237406546844762,-1.1630322265481867)" fill="#fff"><path xmlns="http://www.w3.org/2000/svg" d="M95.3,25.1c0,0-3.1-14.8-16.5-20C72.5,2.7,61,1.5,49.7,1.4C38.4,1.5,26.9,2.7,20.6,5.1C7.1,10.3,4,25.1,4,25.1  C2,33.5,1.4,42,1.5,49.5C1.4,57.1,2,65.6,4,74c0,0,3.1,14.8,16.5,20c6.3,2.4,17.8,3.6,29.1,3.7C61,97.6,72.5,96.4,78.8,94  c13.4-5.2,16.5-20,16.5-20c2-8.4,2.7-16.9,2.6-24.4C98,42,97.4,33.5,95.3,25.1z M69.7,50c-3,5.5-18.7,20.3-20,21.6l-0.1-0.1  c-1.9-1.8-17-16.1-19.9-21.5c0,0-8-9.7,0-17c0,0,11.5-9.7,20,3.5c8.5-13.3,20-3.5,20-3.5C77.7,40.2,69.7,50,69.7,50z"/></g><g id="SvgjsG1098" featureKey="Q4qmbg-0" transform="matrix(4.532966613769531,0,0,4.532966613769531,100.10430562953371,-18.928568031949137)" fill="#fff"><path d="M7.12 9.38 c0.24 0 0.44668 0.03334 0.62002 0.1 l0 2.64 c-0.30666 -0.06666 -0.64666 -0.1 -1.02 -0.1 c-1.8667 0 -2.8 1.1067 -2.8 3.32 l0 4.66 l-2.84 0 l0 -10.34 l2.7 0 l0 1.92 l0.04 0 c0.28 -0.66666 0.72334 -1.2 1.33 -1.6 s1.2633 -0.6 1.97 -0.6 z M12.694875 9.38 c0.97334 0 1.84 0.22664 2.6 0.67998 s1.3567 1.11 1.79 1.97 s0.65 1.85 0.65 2.97 c0 0.10666 -0.0066602 0.28 -0.02 0.52 l-7.46 0 c0.02666 0.82666 0.24332 1.47 0.64998 1.93 s1.03 0.69 1.87 0.69 c0.52 0 0.99666 -0.13 1.43 -0.39 s0.71 -0.57666 0.83 -0.95 l2.5 0 c-0.73334 2.32 -2.3466 3.48 -4.84 3.48 c-0.94666 -0.01334 -1.8233 -0.22 -2.63 -0.62 s-1.45 -1.0233 -1.93 -1.87 s-0.72 -1.83 -0.72 -2.95 c0 -1.0533 0.24334 -2.0134 0.73 -2.88 s1.1333 -1.5133 1.94 -1.94 s1.6767 -0.64 2.61 -0.64 z M14.874875 13.719999999999999 c-0.13334 -0.77334 -0.38 -1.3333 -0.74 -1.68 s-0.87334 -0.52 -1.54 -0.52 c-0.69334 0 -1.24 0.19666 -1.64 0.59 s-0.63334 0.93 -0.7 1.61 l4.62 0 z M21.90975 5.720000000000001 l0 7.66 l3.58 -3.72 l3.36 0 l-3.9 3.8 l4.34 6.54 l-3.44 0 l-2.84 -4.62 l-1.1 1.06 l0 3.56 l-2.84 0 l0 -14.28 l2.84 0 z M32.804625 5.720000000000001 l0 7.66 l3.58 -3.72 l3.36 0 l-3.9 3.8 l4.34 6.54 l-3.44 0 l-2.84 -4.62 l-1.1 1.06 l0 3.56 l-2.84 0 l0 -14.28 l2.84 0 z M45.619499999999995 9.38 c1.6533 0 2.96 0.50334 3.92 1.51 s1.44 2.3234 1.44 3.95 c0 1.64 -0.49 2.9566 -1.47 3.95 s-2.2766 1.49 -3.89 1.49 c-1.64 0 -2.94 -0.50334 -3.9 -1.51 s-1.44 -2.3166 -1.44 -3.93 c0 -1.6667 0.49 -2.9934 1.47 -3.98 s2.27 -1.48 3.87 -1.48 z M43.119499999999995 14.84 c0 1.0533 0.21334 1.8666 0.64 2.44 s1.0467 0.86 1.86 0.86 c0.84 0 1.47 -0.29334 1.89 -0.88 s0.63 -1.3933 0.63 -2.42 c0 -1.0667 -0.21666 -1.8867 -0.65 -2.46 s-1.0633 -0.86 -1.89 -0.86 c-0.8 0 -1.4133 0.28666 -1.84 0.86 s-0.64 1.3933 -0.64 2.46 z"/></g>
			</g>
		</svg>
	